<svg width="67" height="67" viewBox="0 0 67 67" fill="none" xmlns="http://www.w3.org/2000/svg">
<path fill-rule="evenodd" clip-rule="evenodd" d="M4.1875 33.5C4.1875 32.9447 4.40809 32.4121 4.80075 32.0195C5.1934 31.6268 5.72595 31.4062 6.28125 31.4062H55.6644L42.4864 18.2323C42.0932 17.8392 41.8724 17.306 41.8724 16.75C41.8724 16.194 42.0932 15.6607 42.4864 15.2676C42.8795 14.8744 43.4128 14.6536 43.9688 14.6536C44.5247 14.6536 45.058 14.8744 45.4511 15.2676L62.2011 32.0176C62.3961 32.2121 62.5508 32.4431 62.6564 32.6975C62.7619 32.9519 62.8162 33.2246 62.8162 33.5C62.8162 33.7754 62.7619 34.0481 62.6564 34.3024C62.5508 34.5568 62.3961 34.7878 62.2011 34.9823L45.4511 51.7323C45.058 52.1255 44.5247 52.3464 43.9688 52.3464C43.4128 52.3464 42.8795 52.1255 42.4864 51.7323C42.0932 51.3392 41.8724 50.806 41.8724 50.25C41.8724 49.694 42.0932 49.1607 42.4864 48.7676L55.6644 35.5937H6.28125C5.72595 35.5937 5.1934 35.3731 4.80075 34.9805C4.40809 34.5878 4.1875 34.0553 4.1875 33.5Z" fill="white"/>
</svg>
