<svg width="67" height="67" viewBox="0 0 67 67" fill="none" xmlns="http://www.w3.org/2000/svg">
<path fill-rule="evenodd" clip-rule="evenodd" d="M62.8125 33.5C62.8125 34.0553 62.5919 34.5879 62.1993 34.9805C61.8066 35.3732 61.274 35.5938 60.7188 35.5938L11.3356 35.5938L24.5136 48.7677C24.9068 49.1608 25.1276 49.694 25.1276 50.25C25.1276 50.806 24.9068 51.3393 24.5136 51.7324C24.1205 52.1256 23.5872 52.3464 23.0312 52.3464C22.4753 52.3464 21.942 52.1256 21.5489 51.7324L4.79887 34.9824C4.60389 34.7879 4.4492 34.5569 4.34364 34.3025C4.23809 34.0481 4.18376 33.7754 4.18376 33.5C4.18376 33.2246 4.23809 32.9519 4.34364 32.6976C4.4492 32.4432 4.60389 32.2122 4.79887 32.0177L21.5489 15.2677C21.942 14.8745 22.4753 14.6536 23.0312 14.6536C23.5872 14.6536 24.1205 14.8745 24.5136 15.2677C24.9068 15.6608 25.1276 16.194 25.1276 16.75C25.1276 17.306 24.9068 17.8393 24.5136 18.2324L11.3356 31.4063L60.7188 31.4063C61.274 31.4063 61.8066 31.6269 62.1993 32.0195C62.5919 32.4122 62.8125 32.9447 62.8125 33.5Z" fill="white"/>
</svg>
